REM DIRINDEX 1\2,1\3
REM DIRNAME folder01,folder02,folder03
TITLE ""
FILE "sample sentencesTrack13.mp3" MP3
  TRACK 01 AUDIO
    TITLE "3:cjc143_2835"
    INDEX 01 00:00:00
  TRACK 02 AUDIO
    TITLE "0:"
    INDEX 01 00:00:58
  TRACK 03 AUDIO
    TITLE "3:cjc143_2836"
    INDEX 01 00:01:28
  TRACK 04 AUDIO
    TITLE "0:"
    INDEX 01 00:03:43
  TRACK 05 AUDIO
    TITLE "3:cjc143_2837"
    INDEX 01 00:04:50
  TRACK 06 AUDIO
    TITLE "0:"
    INDEX 01 00:07:17
  TRACK 07 AUDIO
    TITLE "3:cjc143_2838"
    INDEX 01 00:08:23
  TRACK 08 AUDIO
    TITLE "0:"
    INDEX 01 00:10:55
  TRACK 09 AUDIO
    TITLE "3:cjc143_2839"
    INDEX 01 00:11:60
  TRACK 10 AUDIO
    TITLE "0:"
    INDEX 01 00:14:33
  TRACK 11 AUDIO
    TITLE "3:cjc143_2840"
    INDEX 01 00:15:40
  TRACK 12 AUDIO
    TITLE "0:"
    INDEX 01 00:18:31
  TRACK 13 AUDIO
    TITLE "3:cjc143_2841"
    INDEX 01 00:19:42
  TRACK 14 AUDIO
    TITLE "0:"
    INDEX 01 00:21:43
  TRACK 15 AUDIO
    TITLE "3:cjc143_2842"
    INDEX 01 00:22:50
  TRACK 16 AUDIO
    TITLE "0:"
    INDEX 01 00:24:53
  TRACK 17 AUDIO
    TITLE "3:cjc143_2843"
    INDEX 01 00:25:60
  TRACK 18 AUDIO
    TITLE "0:"
    INDEX 01 00:29:01
  TRACK 19 AUDIO
    TITLE "3:cjc143_2844"
    INDEX 01 00:30:10
  TRACK 20 AUDIO
    TITLE "0:"
    INDEX 01 00:33:09
  TRACK 21 AUDIO
    TITLE "3:cjc143_2845"
    INDEX 01 00:34:22
  TRACK 22 AUDIO
    TITLE "0:"
    INDEX 01 00:37:44
  TRACK 23 AUDIO
    TITLE "3:cjc143_2846"
    INDEX 01 00:38:55
  TRACK 24 AUDIO
    TITLE "0:"
    INDEX 01 00:40:54
  TRACK 25 AUDIO
    TITLE "3:cjc143_2847"
    INDEX 01 00:41:59
  TRACK 26 AUDIO
    TITLE "0:"
    INDEX 01 00:43:58
  TRACK 27 AUDIO
    TITLE "3:cjc143_2848"
    INDEX 01 00:44:67
  TRACK 28 AUDIO
    TITLE "0:"
    INDEX 01 00:48:65
  TRACK 29 AUDIO
    TITLE "3:cjc143_2849"
    INDEX 01 00:50:03
  TRACK 30 AUDIO
    TITLE "0:"
    INDEX 01 00:52:10
  TRACK 31 AUDIO
    TITLE "3:cjc143_2850"
    INDEX 01 00:53:19
  TRACK 32 AUDIO
    TITLE "0:"
    INDEX 01 00:55:22
  TRACK 33 AUDIO
    TITLE "3:cjc143_2851"
    INDEX 01 00:56:29
  TRACK 34 AUDIO
    TITLE "0:"
    INDEX 01 01:00:04
  TRACK 35 AUDIO
    TITLE "3:cjc143_2852"
    INDEX 01 01:01:15
  TRACK 36 AUDIO
    TITLE "0:"
    INDEX 01 01:04:64
  TRACK 37 AUDIO
    TITLE "3:cjc143_2853"
    INDEX 01 01:06:02
  TRACK 38 AUDIO
    TITLE "0:"
    INDEX 01 01:09:10
  TRACK 39 AUDIO
    TITLE "3:cjc143_2854"
    INDEX 01 01:10:22
  TRACK 40 AUDIO
    TITLE "0:"
    INDEX 01 01:12:60
  TRACK 41 AUDIO
    TITLE "3:cjc143_2855"
    INDEX 01 01:13:71
  TRACK 42 AUDIO
    TITLE "0:"
    INDEX 01 01:15:74
  TRACK 43 AUDIO
    TITLE "3:cjc143_2856"
    INDEX 01 01:17:16
  TRACK 44 AUDIO
    TITLE "0:"
    INDEX 01 01:19:46
  TRACK 45 AUDIO
    TITLE "3:cjc143_2857"
    INDEX 01 01:20:57
  TRACK 46 AUDIO
    TITLE "0:"
    INDEX 01 01:25:23
  TRACK 47 AUDIO
    TITLE "3:cjc143_2858"
    INDEX 01 01:26:36
  TRACK 48 AUDIO
    TITLE "0:"
    INDEX 01 01:30:42
  TRACK 49 AUDIO
    TITLE "3:cjc143_2859"
    INDEX 01 01:31:55
  TRACK 50 AUDIO
    TITLE "0:"
    INDEX 01 01:34:05
  TRACK 51 AUDIO
    TITLE "3:cjc143_2860"
    INDEX 01 01:35:12
  TRACK 52 AUDIO
    TITLE "0:"
    INDEX 01 01:38:08
  TRACK 53 AUDIO
    TITLE "3:cjc143_2861"
    INDEX 01 01:39:15
  TRACK 54 AUDIO
    TITLE "0:"
    INDEX 01 01:42:00
  TRACK 55 AUDIO
    TITLE "3:cjc143_2862"
    INDEX 01 01:43:07
  TRACK 56 AUDIO
    TITLE "0:"
    INDEX 01 01:45:44
  TRACK 57 AUDIO
    TITLE "3:cjc143_2863"
    INDEX 01 01:46:51
  TRACK 58 AUDIO
    TITLE "0:"
    INDEX 01 01:49:08
  TRACK 59 AUDIO
    TITLE "3:cjc143_2864"
    INDEX 01 01:50:15
  TRACK 60 AUDIO
    TITLE "0:"
    INDEX 01 01:52:61
  TRACK 61 AUDIO
    TITLE "3:cjc143_2865"
    INDEX 01 01:53:74
  TRACK 62 AUDIO
    TITLE "0:"
    INDEX 01 01:57:17
  TRACK 63 AUDIO
    TITLE "3:cjc143_2866"
    INDEX 01 01:58:29
  TRACK 64 AUDIO
    TITLE "0:"
    INDEX 01 02:01:01
  TRACK 65 AUDIO
    TITLE "3:cjc143_2867"
    INDEX 01 02:02:07
  TRACK 66 AUDIO
    TITLE "0:"
    INDEX 01 02:04:74
  TRACK 67 AUDIO
    TITLE "3:cjc143_2868"
    INDEX 01 02:06:10
  TRACK 68 AUDIO
    TITLE "0:"
    INDEX 01 02:08:58
  TRACK 69 AUDIO
    TITLE "3:cjc143_2869"
    INDEX 01 02:09:64
  TRACK 70 AUDIO
    TITLE "0:"
    INDEX 01 02:12:11
  TRACK 71 AUDIO
    TITLE "3:cjc143_2870"
    INDEX 01 02:13:22
  TRACK 72 AUDIO
    TITLE "0:"
    INDEX 01 02:15:27
  TRACK 73 AUDIO
    TITLE "3:cjc143_2871"
    INDEX 01 02:16:32
  TRACK 74 AUDIO
    TITLE "0:"
    INDEX 01 02:18:43
  TRACK 75 AUDIO
    TITLE "3:cjc143_2872"
    INDEX 01 02:19:50
  TRACK 76 AUDIO
    TITLE "0:"
    INDEX 01 02:22:66
  TRACK 77 AUDIO
    TITLE "3:cjc143_2873"
    INDEX 01 02:24:04
  TRACK 78 AUDIO
    TITLE "0:"
    INDEX 01 02:25:53
  TRACK 79 AUDIO
    TITLE "3:cjc143_2874"
    INDEX 01 02:26:70
  TRACK 80 AUDIO
    TITLE "0:"
    INDEX 01 02:30:29
  TRACK 81 AUDIO
    TITLE "3:cjc143_2875"
    INDEX 01 02:31:36
  TRACK 82 AUDIO
    TITLE "0:"
    INDEX 01 02:33:39
  TRACK 83 AUDIO
    TITLE "3:cjc143_2876"
    INDEX 01 02:34:46
  TRACK 84 AUDIO
    TITLE "0:"
    INDEX 01 02:38:05
  TRACK 85 AUDIO
    TITLE "3:cjc143_2877"
    INDEX 01 02:39:14
  TRACK 86 AUDIO
    TITLE "0:"
    INDEX 01 02:41:68
  TRACK 87 AUDIO
    TITLE "3:cjc143_2878"
    INDEX 01 02:43:00
  TRACK 88 AUDIO
    TITLE "0:"
    INDEX 01 02:44:60
  TRACK 89 AUDIO
    TITLE "3:cjc143_2879"
    INDEX 01 02:46:04
  TRACK 90 AUDIO
    TITLE "0:"
    INDEX 01 02:49:73
  TRACK 91 AUDIO
    TITLE "3:cjc143_2880"
    INDEX 01 02:51:09
  TRACK 92 AUDIO
    TITLE "0:"
    INDEX 01 02:54:27
  TRACK 93 AUDIO
    TITLE "3:cjc143_2881"
    INDEX 01 02:55:34
  TRACK 94 AUDIO
    TITLE "0:"
    INDEX 01 02:58:54
  TRACK 95 AUDIO
    TITLE "3:cjc143_2882"
    INDEX 01 02:59:62
  TRACK 96 AUDIO
    TITLE "0:"
    INDEX 01 03:02:68
